<?xml version="1.0" standalone="no"?><!DOCTYPE svg PUBLIC "-//W3C//DTD SVG 1.1//EN" "http://www.w3.org/Graphics/SVG/1.1/DTD/svg11.dtd"><svg t="1497598748142" class="icon" style="" viewBox="0 0 1025 1024" version="1.1" xmlns="http://www.w3.org/2000/svg" p-id="3600" xmlns:xlink="http://www.w3.org/1999/xlink" width="48.046875" height="48"><defs><style type="text/css"></style></defs><path d="M512.268258 1022.835842c-68.658678 0-135.399619-13.564433-198.369591-40.316509-60.752236-25.809077-115.373446-62.712976-162.346233-109.685763-46.971763-46.971763-83.875662-101.592974-109.685763-162.346233C15.115619 647.517366 1.551186 580.777449 1.551186 512.118771S15.115619 376.719151 41.866671 313.74918c25.810101-60.752236 62.714-115.373446 109.685763-162.346233 46.972787-46.971763 101.593997-83.875662 162.346233-109.685763 62.969971-26.751052 129.710912-40.315485 198.369591-40.315485s135.398595 13.564433 198.368567 40.315485c60.752236 25.810101 115.373446 62.714 162.346233 109.685763 46.971763 46.972787 83.875662 101.593997 109.685763 162.346233 26.752076 62.969971 40.316509 129.710912 40.316509 198.369591s-13.564433 135.398595-40.316509 198.368567c-25.809077 60.75326-62.712976 115.37447-109.685763 162.346233-46.971763 46.972787-101.592974 83.876686-162.346233 109.685763C647.666853 1009.27141 580.925912 1022.835842 512.268258 1022.835842zM512.268258 50.548195c-62.018782 0-122.293887 12.247716-179.152287 36.403219-54.923257 23.333323-104.317532 56.709936-146.810821 99.204249s-75.870926 91.888588-99.204249 146.810821c-24.155503 56.8584-36.403219 117.133505-36.403219 179.152287 0 62.017758 12.247716 122.292863 36.403219 179.152287 23.333323 54.923257 56.709936 104.317532 99.204249 146.811845 42.493289 42.493289 91.888588 75.870926 146.810821 99.204249 56.8584 24.155503 117.133505 36.403219 179.152287 36.403219 62.017758 0 122.292863-12.247716 179.152287-36.403219 54.923257-23.333323 104.317532-56.71096 146.811845-99.204249 42.493289-42.494313 75.870926-91.888588 99.204249-146.811845 24.155503-56.8584 36.403219-117.133505 36.403219-179.152287s-12.247716-122.293887-36.403219-179.152287c-23.334347-54.923257-56.71096-104.317532-99.205273-146.810821-42.493289-42.493289-91.887565-75.870926-146.810821-99.204249C634.561121 62.795911 574.286016 50.548195 512.268258 50.548195z" p-id="3601"></path><path d="M335.530293 482.324732c34.209033 0 61.939943-27.731934 61.939943-61.939943s-27.731934-61.939943-61.939943-61.939943-61.939943 27.731934-61.939943 61.939943S301.32126 482.324732 335.530293 482.324732zM707.173021 482.324732c34.209033 0 61.939943-27.731934 61.939943-61.939943s-27.731934-61.939943-61.939943-61.939943c-34.209033 0-61.940967 27.731934-61.940967 61.939943S672.963988 482.324732 707.173021 482.324732z" p-id="3602"></path><path d="M309.228726 787.48249c-4.704753 0-9.459677-1.348457-13.660678-4.164142-11.272977-7.557298-14.285248-22.82138-6.72795-34.094357 50.536932-75.388676 134.827267-120.396628 225.475931-120.396628 89.423073 0 173.071432 44.061881 223.758875 117.866607 7.683235 11.186971 4.842978 26.483818-6.343993 34.167053-11.187995 7.684259-26.484842 4.842978-34.167053-6.343993-41.51855-60.452237-110.021598-96.543171-183.247828-96.543171-74.229638 0-143.258963 36.866015-184.653623 98.614491C324.921817 783.660326 317.147455 787.48249 309.228726 787.48249z" p-id="3603"></path></svg>