<?xml version="1.0" standalone="no"?><!DOCTYPE svg PUBLIC "-//W3C//DTD SVG 1.1//EN" "http://www.w3.org/Graphics/SVG/1.1/DTD/svg11.dtd"><svg t="1497598694226" class="icon" style="" viewBox="0 0 1024 1024" version="1.1" xmlns="http://www.w3.org/2000/svg" p-id="2843" xmlns:xlink="http://www.w3.org/1999/xlink" width="48" height="48"><defs><style type="text/css"></style></defs><path d="M580.193 1022.543l-136.738 0c-14.287 0-26.843-9.471-30.769-23.208l-41.943-146.79-133.479 74.152c-12.494 6.938-28.07 4.755-38.171-5.35l-96.688-96.719c-10.1-10.104-12.28-25.677-5.342-38.165l74.152-133.469-146.81-41.953c-13.737-3.926-23.208-16.481-23.208-30.769l0-136.75c0-14.288 9.473-26.845 23.211-30.77l146.795-41.932-74.142-133.466c-6.938-12.489-4.756-28.065 5.346-38.168l96.688-96.688c10.105-10.104 25.683-12.283 38.169-5.346l133.478 74.158 41.944-146.802c3.925-13.738 16.481-23.209 30.769-23.209l136.738 0c14.287 0 26.844 9.471 30.769 23.209l41.944 146.801 133.477-74.157c12.488-6.938 28.064-4.758 38.167 5.344l96.701 96.689c10.104 10.103 12.286 25.679 5.348 38.169l-74.146 133.466 146.799 41.932c13.738 3.925 23.211 16.481 23.211 30.77l0 136.75c0 14.287-9.471 26.843-23.208 30.769l-146.813 41.953 74.156 133.468c6.938 12.489 4.758 28.064-5.344 38.167l-96.701 96.719c-10.101 10.104-25.676 12.288-38.169 5.349l-133.479-74.152-41.943 146.79C607.035 1013.072 594.48 1022.543 580.193 1022.543zM467.591 958.543l88.465 0 46.386-162.337c2.683-9.387 9.503-17.036 18.522-20.772 9.02-3.735 19.252-3.151 27.786 1.591l147.611 82.003 62.567-62.579-82.01-147.604c-4.741-8.534-5.328-18.767-1.592-27.787 3.735-9.02 11.385-15.841 20.772-18.523l162.362-46.396 0-88.474-162.349-46.374c-9.388-2.682-17.038-9.502-20.774-18.522-3.737-9.021-3.151-19.253 1.59-27.787l81.999-147.603-62.562-62.555-147.613 82.012c-8.533 4.741-18.767 5.329-27.786 1.592-9.021-3.736-15.842-11.386-18.523-20.773l-46.388-162.351-88.463 0-46.388 162.351c-2.682 9.388-9.503 17.037-18.523 20.773-9.019 3.734-19.252 3.149-27.786-1.592l-147.612-82.012-62.554 62.554 81.996 147.604c4.741 8.535 5.326 18.768 1.59 27.787-3.736 9.021-11.387 15.841-20.774 18.522l-162.344 46.373 0 88.475 162.358 46.396c9.388 2.683 17.037 9.504 20.772 18.523 3.735 9.021 3.149 19.252-1.592 27.786l-82.008 147.606 62.559 62.577 147.61-82.002c8.534-4.74 18.767-5.326 27.786-1.591 9.02 3.736 15.84 11.386 18.522 20.772L467.591 958.543zM511.829 722.523c-116.141 0-210.627-94.463-210.627-210.573 0-116.154 94.486-210.652 210.627-210.652 56.258 0 109.147 21.912 148.926 61.7 39.776 39.786 61.683 92.685 61.683 148.952 0 56.249-21.907 109.13-61.688 148.901C620.973 700.621 568.085 722.523 511.829 722.523zM511.829 365.298c-80.851 0-146.627 65.788-146.627 146.652 0 80.82 65.776 146.573 146.627 146.573 80.84 0 146.608-65.753 146.608-146.573C658.438 431.086 592.669 365.298 511.829 365.298z" p-id="2844"></path></svg>