<?xml version="1.0" standalone="no"?><!DOCTYPE svg PUBLIC "-//W3C//DTD SVG 1.1//EN" "http://www.w3.org/Graphics/SVG/1.1/DTD/svg11.dtd"><svg t="1497598721357" class="icon" style="" viewBox="0 0 1024 1024" version="1.1" xmlns="http://www.w3.org/2000/svg" p-id="3093" xmlns:xlink="http://www.w3.org/1999/xlink" width="48" height="48"><defs><style type="text/css"></style></defs><path d="M703.502 255.27l63.835 0 0-63.765 0-191.505-63.835 0 0 191.505-383.003 0 0-191.505-63.835 0 0 191.505 0 63.765 63.835 0L703.502 255.27zM470.734 724.68l168.933-150.261 0-63.79-159.434 0 118.171-105.13-45.131-45.106-168.939 150.232 0.003 0.003-0.003 0 0 63.79 159.485 0-118.222 105.155L470.734 724.68zM831.178 191.505l0 63.765c70.512 0 127.663 57.19 127.663 127.708l0 191.505c0 0-75.861 257.286-478.819 257.286-402.964 0-414.857-257.286-414.857-257.286l0-191.505c0-70.518 57.151-127.708 127.664-127.708l0-63.765c-105.762 0-191.505 85.686-191.505 191.473l0 191.505c0 121.708 105.934 320.33 480.964 320.33 4.093 0 8.153-0.032 12.196-0.078 10.446 19.373 18.519 41.762 18.519 64.711 0 34.235-64.841 61.837-64.841 61.837l63.841 0c0 0 63.841-27.602 63.841-61.837 0-23.89-8.725-47.281-19.722-67.281 322.986-23.675 466.554-201.16 466.554-317.681l0-191.505C1022.676 277.191 936.939 191.505 831.178 191.505z" p-id="3094"></path></svg>