<?xml version="1.0" standalone="no"?><!DOCTYPE svg PUBLIC "-//W3C//DTD SVG 1.1//EN" "http://www.w3.org/Graphics/SVG/1.1/DTD/svg11.dtd"><svg t="1497598712957" class="icon" style="" viewBox="0 0 1024 1024" version="1.1" xmlns="http://www.w3.org/2000/svg" p-id="2968" xmlns:xlink="http://www.w3.org/1999/xlink" width="48" height="48"><defs><style type="text/css"></style></defs><path d="M277.91 1020.501c-40.476 0-79.489-8.636-115.956-25.667l-41.38-19.326 128.756-128.765-73.447-73.433-128.538 128.533-19.133-41.96c-16.333-35.82-24.614-74.075-24.614-113.702 0-73.269 28.534-142.149 80.345-193.956 51.811-51.805 120.696-80.335 193.968-80.335 32.008 0 63.124 5.404 92.783 16.09l116.371-116.369c-10.719-29.751-16.139-60.962-16.139-93.07 0-73.493 28.622-142.591 80.592-194.564 51.974-51.977 121.075-80.602 194.574-80.602 39.712 0 78.053 8.296 113.959 24.655l41.979 19.129-127.366 127.36 73.45 73.454 127.656-127.666 19.389 41.195c17.312 36.783 26.091 76.16 26.091 117.038 0 73.506-28.622 142.609-80.595 194.582-51.97 51.97-121.066 80.591-194.563 80.591-33.181 0-65.369-5.781-95.985-17.214l-114.763 114.766c11.21 30.296 16.879 62.126 16.879 94.916 0 73.278-28.532 142.167-80.342 193.977C420.072 991.968 351.186 1020.501 277.91 1020.501zM234.541 952.047c14.139 2.963 28.624 4.454 43.369 4.454 56.18 0 108.995-21.875 148.716-61.597 39.721-39.723 61.597-92.54 61.597-148.723 0-31.039-6.611-60.934-19.65-88.853l-9.487-20.314 176.867-176.87 20.35 9.576c28.192 13.267 58.402 19.993 89.79 19.993 56.401 0 109.427-21.964 149.309-61.846 39.885-39.885 61.85-92.916 61.85-149.327 0-15.144-1.567-30.017-4.68-44.519l-104.456 104.463-163.96-163.968 103.149-103.145c-13.457-2.659-27.222-3.998-41.212-3.998-116.438 0-211.166 94.729-211.166 211.166 0 30.498 6.355 59.915 18.889 87.432l9.2 20.198-177.77 177.768-20.202-9.209c-27.423-12.5-56.738-18.839-87.133-18.839-115.967 0-210.312 94.336-210.312 210.291 0 13.9 1.325 27.572 3.959 40.943l104.322-104.318 163.964 163.931L234.541 952.047z" p-id="2969"></path></svg>