<?xml version="1.0" standalone="no"?><!DOCTYPE svg PUBLIC "-//W3C//DTD SVG 1.1//EN" "http://www.w3.org/Graphics/SVG/1.1/DTD/svg11.dtd"><svg t="1497598735549" class="icon" style="" viewBox="0 0 1025 1024" version="1.1" xmlns="http://www.w3.org/2000/svg" p-id="3344" xmlns:xlink="http://www.w3.org/1999/xlink" width="48.046875" height="48"><defs><style type="text/css"></style></defs><path d="M637.349161 308.770026" p-id="3345"></path><path d="M512.53242 1022.476459c-68.658678 0-135.399619-13.564433-198.369591-40.316509-60.752236-25.809077-115.373446-62.712976-162.346233-109.685763-46.971763-46.971763-83.875662-101.592974-109.685763-162.346233-26.751052-62.969971-40.315485-129.710912-40.315485-198.368567s13.564433-135.399619 40.315485-198.369591c25.810101-60.752236 62.714-115.373446 109.685763-162.346233 46.972787-46.971763 101.593997-83.875662 162.346233-109.685763 62.969971-26.751052 129.710912-40.315485 198.369591-40.315485s135.398595 13.564433 198.368567 40.315485c60.752236 25.810101 115.37447 62.714 162.346233 109.685763 46.972787 46.972787 83.876686 101.593997 109.686787 162.346233 26.752076 62.969971 40.316509 129.710912 40.316509 198.369591s-13.564433 135.398595-40.316509 198.368567c-25.810101 60.75326-62.712976 115.37447-109.685763 162.346233-46.971763 46.972787-101.593997 83.876686-162.346233 109.685763C647.93204 1008.912026 581.190075 1022.476459 512.53242 1022.476459zM512.53242 50.188811c-62.018782 0-122.293887 12.247716-179.152287 36.403219-54.923257 23.333323-104.317532 56.709936-146.810821 99.204249s-75.870926 91.888588-99.204249 146.810821c-24.155503 56.8584-36.403219 117.133505-36.403219 179.152287 0 62.017758 12.247716 122.292863 36.403219 179.152287 23.333323 54.923257 56.709936 104.317532 99.204249 146.811845 42.493289 42.493289 91.888588 75.870926 146.810821 99.204249 56.8584 24.155503 117.133505 36.403219 179.152287 36.403219 62.017758 0 122.293887-12.247716 179.153311-36.403219 54.923257-23.333323 104.317532-56.71096 146.810821-99.204249 42.494313-42.494313 75.87195-91.888588 99.205273-146.811845 24.155503-56.8584 36.403219-117.133505 36.403219-179.152287s-12.247716-122.293887-36.404243-179.152287c-23.333323-54.923257-56.71096-104.317532-99.204249-146.810821-42.494313-42.493289-91.888588-75.870926-146.811845-99.204249C634.825284 62.436527 574.550178 50.188811 512.53242 50.188811z" p-id="3346"></path><path d="M512.442318 767.198298c-14.136785 0-25.597133-11.460348-25.597133-25.597133l0-332.127922c0-14.136785 11.460348-25.597133 25.597133-25.597133s25.597133 11.460348 25.597133 25.597133l0 332.127922C538.039452 755.737949 526.578079 767.198298 512.442318 767.198298z" p-id="3347"></path><path d="M511.381573 319.924232c-17.522773 0-31.778329-14.255555-31.778329-31.778329 0-17.52175 14.255555-31.777305 31.778329-31.777305 17.52175 0 31.777305 14.255555 31.777305 31.777305C543.158878 305.668677 528.903323 319.924232 511.381573 319.924232z" p-id="3348"></path></svg>